<svg width="21" height="22" viewBox="0 0 21 22" fill="none" xmlns="http://www.w3.org/2000/svg">
<path d="M15.9656 14.3916C15.2795 13.7142 14.423 13.7142 13.7413 14.3916C13.2213 14.9073 12.7013 15.4229 12.19 15.9473C12.0501 16.0916 11.9321 16.1222 11.7617 16.026C11.4252 15.8425 11.0669 15.6939 10.7435 15.4929C9.23587 14.5445 7.97295 13.3253 6.85423 11.9531C6.29925 11.2714 5.80544 10.5415 5.46021 9.71997C5.39029 9.5539 5.4034 9.44465 5.53887 9.30918C6.0589 8.80662 6.56582 8.29095 7.0771 7.77528C7.78941 7.05858 7.78941 6.21952 7.07273 5.49846C6.66632 5.08767 6.25992 4.68562 5.85351 4.27483C5.43399 3.8553 5.01884 3.4314 4.59496 3.01624C3.90887 2.34762 3.05235 2.34762 2.37064 3.02061C1.84624 3.53629 1.34369 4.06507 0.810555 4.572C0.316747 5.0396 0.0676587 5.61208 0.015219 6.2807C-0.0678106 7.36886 0.198758 8.39583 0.574576 9.39658C1.34369 11.468 2.51485 13.3078 3.93509 14.9947C5.85351 17.2759 8.14338 19.0807 10.8222 20.383C12.0283 20.9686 13.2781 21.4187 14.6372 21.493C15.5723 21.5454 16.3852 21.3095 17.0363 20.5796C17.482 20.0815 17.9846 19.627 18.4565 19.1506C19.1557 18.4427 19.1601 17.5861 18.4653 16.8869C17.635 16.0522 16.8003 15.2219 15.9656 14.3916Z" fill="white"/>
<path d="M15.1312 10.9099L16.7438 10.6346C16.4903 9.15316 15.7911 7.81154 14.7292 6.74524C13.6061 5.62213 12.1859 4.91417 10.6214 4.69567L10.3942 6.31697C11.6047 6.4874 12.7059 7.03367 13.5755 7.90331C14.3971 8.72489 14.9346 9.76497 15.1312 10.9099Z" fill="white"/>
<path d="M17.6526 3.89993C15.791 2.03827 13.4356 0.862718 10.8354 0.5L10.6082 2.1213C12.8544 2.43595 14.8908 3.45418 16.4989 5.058C18.024 6.58317 19.0248 8.51038 19.3875 10.6299L21 10.3546C20.5761 7.89856 19.4181 5.66982 17.6526 3.89993Z" fill="white"/>
</svg>
